<mxfile host="app.diagrams.net" modified="2023-05-14T08:45:16.818Z" agent="5.0 (Windows NT 10.0; Win64; x64) AppleWebKit/537.36 (KHTML, like Gecko) Chrome/112.0.0.0 Safari/537.36" etag="u_4fhfPfzY0TV6Z-_r0Z" version="21.0.6" type="github" pages="4">
  <diagram name="第 1 页" id="ZaXlrRLz04iYmXhUT0vT">
    <mxGraphModel dx="2155" dy="3454" grid="1" gridSize="10" guides="1" tooltips="1" connect="1" arrows="1" fold="1" page="1" pageScale="1" pageWidth="1654" pageHeight="2336" math="0" shadow="0">
      <root>
        <mxCell id="0" />
        <mxCell id="1" parent="0" />
        <mxCell id="yhyr5f5wyEVfxhxUaLGF-1" value="" style="rounded=0;whiteSpace=wrap;html=1;fillColor=none;dashed=1;strokeWidth=3;" vertex="1" parent="1">
          <mxGeometry x="170" y="140" width="756" height="330" as="geometry" />
        </mxCell>
        <mxCell id="twb6tVdicTboAH1euEs--9" value="" style="rounded=0;whiteSpace=wrap;html=1;fillColor=none;dashed=1;strokeWidth=1;" parent="1" vertex="1">
          <mxGeometry x="180" y="200" width="350" height="260" as="geometry" />
        </mxCell>
        <mxCell id="twb6tVdicTboAH1euEs--24" style="edgeStyle=orthogonalEdgeStyle;rounded=0;orthogonalLoop=1;jettySize=auto;html=1;exitX=1;exitY=0.5;exitDx=0;exitDy=0;entryX=0;entryY=0.5;entryDx=0;entryDy=0;" parent="1" source="twb6tVdicTboAH1euEs--1" target="twb6tVdicTboAH1euEs--23" edge="1">
          <mxGeometry relative="1" as="geometry" />
        </mxCell>
        <mxCell id="twb6tVdicTboAH1euEs--1" value="&lt;font style=&quot;font-size: 20px;&quot; face=&quot;Times New Roman&quot;&gt;文本预处理&lt;/font&gt;" style="rounded=1;whiteSpace=wrap;html=1;strokeWidth=2;" parent="1" vertex="1">
          <mxGeometry x="172.5" y="43" width="357.5" height="43" as="geometry" />
        </mxCell>
        <mxCell id="twb6tVdicTboAH1euEs--2" value="" style="sketch=0;pointerEvents=1;shadow=0;dashed=0;html=1;strokeColor=none;fillColor=#505050;labelPosition=center;verticalLabelPosition=bottom;verticalAlign=top;outlineConnect=0;align=center;shape=mxgraph.office.concepts.document;" parent="1" vertex="1">
          <mxGeometry x="280" y="-49" width="40" height="47" as="geometry" />
        </mxCell>
        <mxCell id="twb6tVdicTboAH1euEs--3" value="" style="sketch=0;pointerEvents=1;shadow=0;dashed=0;html=1;strokeColor=none;fillColor=#505050;labelPosition=center;verticalLabelPosition=bottom;verticalAlign=top;outlineConnect=0;align=center;shape=mxgraph.office.concepts.document;" parent="1" vertex="1">
          <mxGeometry x="330" y="-49" width="40" height="47" as="geometry" />
        </mxCell>
        <mxCell id="twb6tVdicTboAH1euEs--4" value="" style="sketch=0;pointerEvents=1;shadow=0;dashed=0;html=1;strokeColor=none;fillColor=#505050;labelPosition=center;verticalLabelPosition=bottom;verticalAlign=top;outlineConnect=0;align=center;shape=mxgraph.office.concepts.document;" parent="1" vertex="1">
          <mxGeometry x="380" y="-49" width="40" height="47" as="geometry" />
        </mxCell>
        <mxCell id="twb6tVdicTboAH1euEs--6" value="&lt;font face=&quot;Times New Roman&quot;&gt;&lt;span style=&quot;font-size: 20px;&quot;&gt;拼音嵌入生成&lt;/span&gt;&lt;/font&gt;" style="rounded=1;whiteSpace=wrap;html=1;" parent="1" vertex="1">
          <mxGeometry x="190" y="240" width="160" height="60" as="geometry" />
        </mxCell>
        <mxCell id="twb6tVdicTboAH1euEs--19" style="rounded=0;orthogonalLoop=1;jettySize=auto;html=1;exitX=1;exitY=0.5;exitDx=0;exitDy=0;entryX=0;entryY=0.5;entryDx=0;entryDy=0;" parent="1" source="twb6tVdicTboAH1euEs--7" target="twb6tVdicTboAH1euEs--13" edge="1">
          <mxGeometry relative="1" as="geometry" />
        </mxCell>
        <mxCell id="twb6tVdicTboAH1euEs--7" value="&lt;font face=&quot;Times New Roman&quot;&gt;&lt;span style=&quot;font-size: 20px;&quot;&gt;字形嵌入生成&lt;/span&gt;&lt;/font&gt;" style="rounded=1;whiteSpace=wrap;html=1;" parent="1" vertex="1">
          <mxGeometry x="360" y="240" width="150" height="60" as="geometry" />
        </mxCell>
        <mxCell id="twb6tVdicTboAH1euEs--20" style="rounded=0;orthogonalLoop=1;jettySize=auto;html=1;exitX=1;exitY=0.5;exitDx=0;exitDy=0;entryX=0;entryY=0.5;entryDx=0;entryDy=0;" parent="1" source="twb6tVdicTboAH1euEs--8" target="twb6tVdicTboAH1euEs--18" edge="1">
          <mxGeometry relative="1" as="geometry" />
        </mxCell>
        <mxCell id="twb6tVdicTboAH1euEs--8" value="&lt;font face=&quot;Times New Roman&quot;&gt;&lt;span style=&quot;font-size: 20px;&quot;&gt;词典信息匹配和词向量生成&lt;/span&gt;&lt;/font&gt;" style="rounded=1;whiteSpace=wrap;html=1;" parent="1" vertex="1">
          <mxGeometry x="190" y="316" width="320" height="60" as="geometry" />
        </mxCell>
        <mxCell id="twb6tVdicTboAH1euEs--33" style="edgeStyle=orthogonalEdgeStyle;rounded=0;orthogonalLoop=1;jettySize=auto;html=1;exitX=0.5;exitY=1;exitDx=0;exitDy=0;entryX=0.235;entryY=-0.033;entryDx=0;entryDy=0;entryPerimeter=0;" parent="1" source="twb6tVdicTboAH1euEs--10" target="twb6tVdicTboAH1euEs--15" edge="1">
          <mxGeometry relative="1" as="geometry" />
        </mxCell>
        <mxCell id="twb6tVdicTboAH1euEs--10" value="&lt;font face=&quot;Times New Roman&quot;&gt;&lt;span style=&quot;font-size: 20px;&quot;&gt;依存句法分析和句法信息嵌入生成&lt;/span&gt;&lt;/font&gt;" style="rounded=1;whiteSpace=wrap;html=1;" parent="1" vertex="1">
          <mxGeometry x="190" y="390" width="320" height="60" as="geometry" />
        </mxCell>
        <mxCell id="twb6tVdicTboAH1euEs--11" value="" style="rounded=0;whiteSpace=wrap;html=1;fillColor=none;dashed=1;strokeWidth=1;" parent="1" vertex="1">
          <mxGeometry x="580" y="200" width="335" height="260" as="geometry" />
        </mxCell>
        <mxCell id="twb6tVdicTboAH1euEs--12" value="&lt;font face=&quot;Times New Roman&quot; style=&quot;font-size: 20px;&quot;&gt;基于 Transformer 的上下文编码模块&lt;/font&gt;" style="text;strokeColor=none;align=center;fillColor=none;html=1;verticalAlign=middle;whiteSpace=wrap;rounded=0;" parent="1" vertex="1">
          <mxGeometry x="567.5" y="206" width="360" height="30" as="geometry" />
        </mxCell>
        <mxCell id="twb6tVdicTboAH1euEs--13" value="&lt;font style=&quot;font-size: 20px;&quot;&gt;嵌入层&lt;/font&gt;" style="rounded=1;whiteSpace=wrap;html=1;" parent="1" vertex="1">
          <mxGeometry x="597.5" y="241" width="300" height="30" as="geometry" />
        </mxCell>
        <mxCell id="twb6tVdicTboAH1euEs--14" value="&lt;font style=&quot;font-size: 20px;&quot;&gt;Transformer 层&lt;/font&gt;" style="rounded=1;whiteSpace=wrap;html=1;" parent="1" vertex="1">
          <mxGeometry x="597.5" y="277" width="300" height="30" as="geometry" />
        </mxCell>
        <mxCell id="twb6tVdicTboAH1euEs--15" value="" style="rounded=0;whiteSpace=wrap;html=1;fillColor=none;dashed=1;strokeWidth=3;" parent="1" vertex="1">
          <mxGeometry x="171.5" y="520" width="757.5" height="130" as="geometry" />
        </mxCell>
        <mxCell id="twb6tVdicTboAH1euEs--16" value="&lt;font face=&quot;Times New Roman&quot; style=&quot;font-size: 20px;&quot;&gt;特征生成模块&lt;/font&gt;" style="text;strokeColor=none;align=center;fillColor=none;html=1;verticalAlign=middle;whiteSpace=wrap;rounded=0;" parent="1" vertex="1">
          <mxGeometry x="160" y="207" width="362.5" height="30" as="geometry" />
        </mxCell>
        <mxCell id="twb6tVdicTboAH1euEs--17" value="&lt;font style=&quot;font-size: 20px;&quot;&gt;Transformer 层&lt;/font&gt;" style="rounded=1;whiteSpace=wrap;html=1;" parent="1" vertex="1">
          <mxGeometry x="600" y="421" width="300" height="30" as="geometry" />
        </mxCell>
        <mxCell id="twb6tVdicTboAH1euEs--18" value="&lt;font style=&quot;font-size: 20px;&quot;&gt;基于注意力机制的词典信息融合&lt;/font&gt;" style="rounded=1;whiteSpace=wrap;html=1;" parent="1" vertex="1">
          <mxGeometry x="600" y="335" width="300" height="60" as="geometry" />
        </mxCell>
        <mxCell id="twb6tVdicTboAH1euEs--21" value="" style="shape=flexArrow;endArrow=classic;html=1;rounded=0;entryX=0.5;entryY=0;entryDx=0;entryDy=0;" parent="1" edge="1">
          <mxGeometry width="50" height="50" relative="1" as="geometry">
            <mxPoint x="351" y="1" as="sourcePoint" />
            <mxPoint x="351.25" y="41" as="targetPoint" />
          </mxGeometry>
        </mxCell>
        <mxCell id="twb6tVdicTboAH1euEs--22" value="" style="shape=flexArrow;endArrow=classic;html=1;rounded=0;entryX=0.5;entryY=0;entryDx=0;entryDy=0;" parent="1" edge="1">
          <mxGeometry width="50" height="50" relative="1" as="geometry">
            <mxPoint x="349.43" y="100" as="sourcePoint" />
            <mxPoint x="349.43" y="140" as="targetPoint" />
          </mxGeometry>
        </mxCell>
        <mxCell id="twb6tVdicTboAH1euEs--23" value="&lt;font style=&quot;font-size: 20px;&quot; face=&quot;Times New Roman&quot;&gt;比较关系识别&lt;/font&gt;" style="rounded=1;whiteSpace=wrap;html=1;strokeWidth=2;" parent="1" vertex="1">
          <mxGeometry x="572.5" y="43" width="357.5" height="43" as="geometry" />
        </mxCell>
        <mxCell id="twb6tVdicTboAH1euEs--25" value="&lt;font style=&quot;font-size: 20px;&quot;&gt;识别模块&lt;/font&gt;" style="rounded=1;whiteSpace=wrap;html=1;strokeWidth=2;" parent="1" vertex="1">
          <mxGeometry x="200" y="576" width="280" height="60" as="geometry" />
        </mxCell>
        <mxCell id="twb6tVdicTboAH1euEs--27" style="edgeStyle=orthogonalEdgeStyle;rounded=0;orthogonalLoop=1;jettySize=auto;html=1;exitX=0;exitY=0.5;exitDx=0;exitDy=0;entryX=1;entryY=0.5;entryDx=0;entryDy=0;startArrow=classic;startFill=1;" parent="1" source="twb6tVdicTboAH1euEs--26" target="twb6tVdicTboAH1euEs--25" edge="1">
          <mxGeometry relative="1" as="geometry" />
        </mxCell>
        <mxCell id="twb6tVdicTboAH1euEs--26" value="&lt;font style=&quot;font-size: 20px;&quot;&gt;关联模块&lt;/font&gt;" style="rounded=1;whiteSpace=wrap;html=1;strokeWidth=2;" parent="1" vertex="1">
          <mxGeometry x="630" y="576" width="277.5" height="60" as="geometry" />
        </mxCell>
        <mxCell id="twb6tVdicTboAH1euEs--28" value="&lt;font face=&quot;Times New Roman&quot; style=&quot;font-size: 20px;&quot;&gt;基于Span的联合抽取模型&lt;/font&gt;" style="text;strokeColor=none;align=center;fillColor=none;html=1;verticalAlign=middle;whiteSpace=wrap;rounded=0;" parent="1" vertex="1">
          <mxGeometry x="372" y="531" width="360" height="30" as="geometry" />
        </mxCell>
        <mxCell id="twb6tVdicTboAH1euEs--29" value="&lt;font face=&quot;Times New Roman&quot; style=&quot;font-size: 20px;&quot;&gt;联合训练&lt;/font&gt;" style="text;strokeColor=none;align=center;fillColor=none;html=1;verticalAlign=middle;whiteSpace=wrap;rounded=0;" parent="1" vertex="1">
          <mxGeometry x="500" y="573" width="120" height="30" as="geometry" />
        </mxCell>
        <mxCell id="twb6tVdicTboAH1euEs--32" value="" style="shape=flexArrow;endArrow=classic;html=1;rounded=0;entryX=0.5;entryY=0;entryDx=0;entryDy=0;" parent="1" edge="1">
          <mxGeometry width="50" height="50" relative="1" as="geometry">
            <mxPoint x="757.24" y="475" as="sourcePoint" />
            <mxPoint x="757.24" y="515" as="targetPoint" />
          </mxGeometry>
        </mxCell>
        <mxCell id="twb6tVdicTboAH1euEs--34" value="&lt;font size=&quot;1&quot; face=&quot;Times New Roman&quot;&gt;&lt;b style=&quot;font-size: 29px;&quot;&gt;......&lt;/b&gt;&lt;/font&gt;" style="text;strokeColor=none;align=center;fillColor=none;html=1;verticalAlign=middle;whiteSpace=wrap;rounded=0;" parent="1" vertex="1">
          <mxGeometry x="570" y="298" width="360" height="30" as="geometry" />
        </mxCell>
        <mxCell id="twb6tVdicTboAH1euEs--35" value="&lt;font size=&quot;1&quot; face=&quot;Times New Roman&quot;&gt;&lt;b style=&quot;font-size: 29px;&quot;&gt;......&lt;/b&gt;&lt;/font&gt;" style="text;strokeColor=none;align=center;fillColor=none;html=1;verticalAlign=middle;whiteSpace=wrap;rounded=0;" parent="1" vertex="1">
          <mxGeometry x="570" y="385" width="360" height="30" as="geometry" />
        </mxCell>
        <mxCell id="yhyr5f5wyEVfxhxUaLGF-2" value="&lt;font face=&quot;Times New Roman&quot; style=&quot;font-size: 20px;&quot;&gt;多粒度特征增强模型&lt;/font&gt;" style="text;strokeColor=none;align=center;fillColor=none;html=1;verticalAlign=middle;whiteSpace=wrap;rounded=0;" vertex="1" parent="1">
          <mxGeometry x="372" y="156" width="360" height="30" as="geometry" />
        </mxCell>
      </root>
    </mxGraphModel>
  </diagram>
  <diagram id="M0TJ-FXreUQQ148fkd5B" name="第 2 页">
    <mxGraphModel dx="4240" dy="1341" grid="1" gridSize="10" guides="1" tooltips="1" connect="1" arrows="1" fold="1" page="1" pageScale="1" pageWidth="1654" pageHeight="2336" math="0" shadow="0">
      <root>
        <mxCell id="0" />
        <mxCell id="1" parent="0" />
        <mxCell id="zdehyPBXNXeJffrCgj6j-33" value="" style="rounded=1;whiteSpace=wrap;html=1;fillColor=none;dashed=1;dashPattern=8 8;strokeWidth=2;" parent="1" vertex="1">
          <mxGeometry x="-700" y="1064" width="830" height="760" as="geometry" />
        </mxCell>
        <mxCell id="dAKzhvJvxQj2_6ztPtHv-44" style="rounded=0;orthogonalLoop=1;jettySize=auto;html=1;strokeWidth=2;" parent="1" target="dAKzhvJvxQj2_6ztPtHv-42" edge="1">
          <mxGeometry relative="1" as="geometry">
            <mxPoint x="569.0000000000005" y="1396.9955191256827" as="sourcePoint" />
          </mxGeometry>
        </mxCell>
        <mxCell id="FJXi0_s18lQlcgdCNnhx-1" value="" style="sketch=0;shadow=0;dashed=0;html=1;strokeColor=none;fillColor=#505050;labelPosition=center;verticalLabelPosition=bottom;verticalAlign=top;outlineConnect=0;align=center;shape=mxgraph.office.databases.database_server;aspect=fixed;" parent="1" vertex="1">
          <mxGeometry x="430" y="1608" width="90" height="90" as="geometry" />
        </mxCell>
        <mxCell id="dAKzhvJvxQj2_6ztPtHv-37" style="rounded=0;orthogonalLoop=1;jettySize=auto;html=1;strokeWidth=2;" parent="1" source="dAKzhvJvxQj2_6ztPtHv-33" target="dAKzhvJvxQj2_6ztPtHv-34" edge="1">
          <mxGeometry relative="1" as="geometry" />
        </mxCell>
        <mxCell id="dAKzhvJvxQj2_6ztPtHv-33" value="" style="sketch=0;pointerEvents=1;shadow=0;dashed=0;html=1;strokeColor=none;fillColor=#505050;labelPosition=center;verticalLabelPosition=bottom;verticalAlign=top;outlineConnect=0;align=center;shape=mxgraph.office.concepts.website;aspect=fixed;" parent="1" vertex="1">
          <mxGeometry x="212" y="1297.8600000000001" width="90" height="74.75" as="geometry" />
        </mxCell>
        <mxCell id="dAKzhvJvxQj2_6ztPtHv-45" style="rounded=0;orthogonalLoop=1;jettySize=auto;html=1;strokeWidth=2;" parent="1" target="dAKzhvJvxQj2_6ztPtHv-43" edge="1">
          <mxGeometry relative="1" as="geometry">
            <mxPoint x="569.0000000000005" y="1454.6195854922275" as="sourcePoint" />
          </mxGeometry>
        </mxCell>
        <mxCell id="dAKzhvJvxQj2_6ztPtHv-46" style="rounded=0;orthogonalLoop=1;jettySize=auto;html=1;strokeWidth=2;" parent="1" target="dAKzhvJvxQj2_6ztPtHv-41" edge="1">
          <mxGeometry relative="1" as="geometry">
            <mxPoint x="569.0000000000005" y="1506.9147368421054" as="sourcePoint" />
          </mxGeometry>
        </mxCell>
        <mxCell id="dAKzhvJvxQj2_6ztPtHv-34" value="" style="sketch=0;pointerEvents=1;shadow=0;dashed=0;html=1;strokeColor=none;fillColor=#505050;labelPosition=center;verticalLabelPosition=bottom;verticalAlign=top;outlineConnect=0;align=center;shape=mxgraph.office.servers.application_server;aspect=fixed;" parent="1" vertex="1">
          <mxGeometry x="411" y="1364.8600000000001" width="160" height="160" as="geometry" />
        </mxCell>
        <mxCell id="dAKzhvJvxQj2_6ztPtHv-38" style="rounded=0;orthogonalLoop=1;jettySize=auto;html=1;strokeWidth=2;" parent="1" source="dAKzhvJvxQj2_6ztPtHv-35" target="dAKzhvJvxQj2_6ztPtHv-34" edge="1">
          <mxGeometry relative="1" as="geometry" />
        </mxCell>
        <mxCell id="dAKzhvJvxQj2_6ztPtHv-35" value="" style="sketch=0;pointerEvents=1;shadow=0;dashed=0;html=1;strokeColor=none;fillColor=#505050;labelPosition=center;verticalLabelPosition=bottom;verticalAlign=top;outlineConnect=0;align=center;shape=mxgraph.office.concepts.website;aspect=fixed;" parent="1" vertex="1">
          <mxGeometry x="214" y="1433.8600000000001" width="90" height="74.75" as="geometry" />
        </mxCell>
        <mxCell id="dAKzhvJvxQj2_6ztPtHv-39" style="rounded=0;orthogonalLoop=1;jettySize=auto;html=1;strokeWidth=2;" parent="1" source="dAKzhvJvxQj2_6ztPtHv-36" target="dAKzhvJvxQj2_6ztPtHv-34" edge="1">
          <mxGeometry relative="1" as="geometry" />
        </mxCell>
        <mxCell id="dAKzhvJvxQj2_6ztPtHv-36" value="" style="sketch=0;pointerEvents=1;shadow=0;dashed=0;html=1;strokeColor=none;fillColor=#505050;labelPosition=center;verticalLabelPosition=bottom;verticalAlign=top;outlineConnect=0;align=center;shape=mxgraph.office.concepts.website;aspect=fixed;" parent="1" vertex="1">
          <mxGeometry x="217" y="1564.8600000000001" width="90" height="74.75" as="geometry" />
        </mxCell>
        <mxCell id="dAKzhvJvxQj2_6ztPtHv-41" value="" style="sketch=0;pointerEvents=1;shadow=0;dashed=0;html=1;strokeColor=none;fillColor=#505050;labelPosition=center;verticalLabelPosition=bottom;verticalAlign=top;outlineConnect=0;align=center;shape=mxgraph.office.devices.laptop;aspect=fixed;" parent="1" vertex="1">
          <mxGeometry x="634" y="1565.8600000000001" width="90" height="52.76" as="geometry" />
        </mxCell>
        <mxCell id="dAKzhvJvxQj2_6ztPtHv-42" value="" style="sketch=0;pointerEvents=1;shadow=0;dashed=0;html=1;strokeColor=none;fillColor=#505050;labelPosition=center;verticalLabelPosition=bottom;verticalAlign=top;outlineConnect=0;align=center;shape=mxgraph.office.devices.mac_client;aspect=fixed;" parent="1" vertex="1">
          <mxGeometry x="632" y="1302.27" width="80" height="66.2" as="geometry" />
        </mxCell>
        <mxCell id="dAKzhvJvxQj2_6ztPtHv-43" value="" style="sketch=0;pointerEvents=1;shadow=0;dashed=0;html=1;strokeColor=none;fillColor=#505050;labelPosition=center;verticalLabelPosition=bottom;verticalAlign=top;outlineConnect=0;align=center;shape=mxgraph.office.devices.workstation;aspect=fixed;" parent="1" vertex="1">
          <mxGeometry x="637" y="1420.8600000000001" width="90" height="95.09" as="geometry" />
        </mxCell>
        <mxCell id="dAKzhvJvxQj2_6ztPtHv-47" value="" style="shape=flexArrow;endArrow=classic;startArrow=classic;html=1;rounded=0;" parent="1" edge="1">
          <mxGeometry width="100" height="100" relative="1" as="geometry">
            <mxPoint x="465" y="1602.8600000000001" as="sourcePoint" />
            <mxPoint x="465" y="1522.8600000000001" as="targetPoint" />
          </mxGeometry>
        </mxCell>
        <mxCell id="dAKzhvJvxQj2_6ztPtHv-48" value="" style="shape=flexArrow;endArrow=classic;startArrow=classic;html=1;rounded=0;" parent="1" edge="1">
          <mxGeometry width="100" height="100" relative="1" as="geometry">
            <mxPoint x="461" y="1360.8600000000001" as="sourcePoint" />
            <mxPoint x="461" y="1280.8600000000001" as="targetPoint" />
          </mxGeometry>
        </mxCell>
        <mxCell id="JXMVNWuGaPXXA2984C5O-35" style="edgeStyle=orthogonalEdgeStyle;rounded=0;orthogonalLoop=1;jettySize=auto;html=1;exitX=0;exitY=0;exitDx=0;exitDy=0;entryX=1.004;entryY=0.126;entryDx=0;entryDy=0;entryPerimeter=0;" edge="1" parent="1" source="TzUhnOA6oygA78WuxmNk-1" target="zdehyPBXNXeJffrCgj6j-33">
          <mxGeometry relative="1" as="geometry" />
        </mxCell>
        <mxCell id="TzUhnOA6oygA78WuxmNk-1" value="&lt;b&gt;&lt;font style=&quot;font-size: 24px;&quot;&gt;可度量数量信息联合抽取模型&lt;/font&gt;&lt;/b&gt;" style="rounded=1;whiteSpace=wrap;html=1;dashed=1;strokeWidth=3;dashPattern=8 8;" parent="1" vertex="1">
          <mxGeometry x="369" y="1178.8600000000001" width="190" height="90" as="geometry" />
        </mxCell>
        <mxCell id="TzUhnOA6oygA78WuxmNk-2" value="&lt;b&gt;&lt;font style=&quot;font-size: 18px;&quot;&gt;网页请求&lt;/font&gt;&lt;/b&gt;" style="text;strokeColor=none;align=center;fillColor=none;html=1;verticalAlign=middle;whiteSpace=wrap;rounded=0;" parent="1" vertex="1">
          <mxGeometry x="210" y="1374.13" width="100" height="30" as="geometry" />
        </mxCell>
        <mxCell id="TzUhnOA6oygA78WuxmNk-3" value="&lt;b&gt;&lt;font style=&quot;font-size: 18px;&quot;&gt;网页请求&lt;/font&gt;&lt;/b&gt;" style="text;strokeColor=none;align=center;fillColor=none;html=1;verticalAlign=middle;whiteSpace=wrap;rounded=0;" parent="1" vertex="1">
          <mxGeometry x="210" y="1511.13" width="100" height="30" as="geometry" />
        </mxCell>
        <mxCell id="TzUhnOA6oygA78WuxmNk-4" value="&lt;b&gt;&lt;font style=&quot;font-size: 18px;&quot;&gt;网页请求&lt;/font&gt;&lt;/b&gt;" style="text;strokeColor=none;align=center;fillColor=none;html=1;verticalAlign=middle;whiteSpace=wrap;rounded=0;" parent="1" vertex="1">
          <mxGeometry x="210" y="1640.13" width="100" height="30" as="geometry" />
        </mxCell>
        <mxCell id="TzUhnOA6oygA78WuxmNk-5" value="&lt;b&gt;&lt;font style=&quot;font-size: 18px;&quot;&gt;数据库&lt;/font&gt;&lt;/b&gt;" style="text;strokeColor=none;align=center;fillColor=none;html=1;verticalAlign=middle;whiteSpace=wrap;rounded=0;" parent="1" vertex="1">
          <mxGeometry x="423" y="1703" width="100" height="30" as="geometry" />
        </mxCell>
        <mxCell id="TzUhnOA6oygA78WuxmNk-7" value="&lt;b&gt;&lt;font style=&quot;font-size: 18px;&quot;&gt;后台服务器&lt;/font&gt;&lt;/b&gt;" style="text;strokeColor=none;align=center;fillColor=none;html=1;verticalAlign=middle;whiteSpace=wrap;rounded=0;" parent="1" vertex="1">
          <mxGeometry x="471" y="1480.99" width="100" height="30" as="geometry" />
        </mxCell>
        <mxCell id="TzUhnOA6oygA78WuxmNk-9" value="&lt;b&gt;&lt;font style=&quot;font-size: 18px;&quot;&gt;用户&lt;/font&gt;&lt;/b&gt;" style="text;strokeColor=none;align=center;fillColor=none;html=1;verticalAlign=middle;whiteSpace=wrap;rounded=0;" parent="1" vertex="1">
          <mxGeometry x="622" y="1371.8600000000001" width="100" height="30" as="geometry" />
        </mxCell>
        <mxCell id="TzUhnOA6oygA78WuxmNk-10" value="&lt;b&gt;&lt;font style=&quot;font-size: 18px;&quot;&gt;用户&lt;/font&gt;&lt;/b&gt;" style="text;strokeColor=none;align=center;fillColor=none;html=1;verticalAlign=middle;whiteSpace=wrap;rounded=0;" parent="1" vertex="1">
          <mxGeometry x="627" y="1518.8600000000001" width="100" height="30" as="geometry" />
        </mxCell>
        <mxCell id="TzUhnOA6oygA78WuxmNk-11" value="&lt;b&gt;&lt;font style=&quot;font-size: 18px;&quot;&gt;用户&lt;/font&gt;&lt;/b&gt;" style="text;strokeColor=none;align=center;fillColor=none;html=1;verticalAlign=middle;whiteSpace=wrap;rounded=0;" parent="1" vertex="1">
          <mxGeometry x="632" y="1629.8600000000001" width="100" height="30" as="geometry" />
        </mxCell>
        <mxCell id="JXMVNWuGaPXXA2984C5O-1" value="" style="rounded=0;whiteSpace=wrap;html=1;fillColor=none;dashed=1;strokeWidth=3;" vertex="1" parent="1">
          <mxGeometry x="-667" y="1269" width="756" height="330" as="geometry" />
        </mxCell>
        <mxCell id="JXMVNWuGaPXXA2984C5O-2" value="" style="rounded=0;whiteSpace=wrap;html=1;fillColor=none;dashed=1;strokeWidth=1;" vertex="1" parent="1">
          <mxGeometry x="-657" y="1329" width="350" height="260" as="geometry" />
        </mxCell>
        <mxCell id="JXMVNWuGaPXXA2984C5O-3" style="edgeStyle=orthogonalEdgeStyle;rounded=0;orthogonalLoop=1;jettySize=auto;html=1;exitX=1;exitY=0.5;exitDx=0;exitDy=0;entryX=0;entryY=0.5;entryDx=0;entryDy=0;" edge="1" parent="1" source="JXMVNWuGaPXXA2984C5O-4" target="JXMVNWuGaPXXA2984C5O-25">
          <mxGeometry relative="1" as="geometry" />
        </mxCell>
        <mxCell id="JXMVNWuGaPXXA2984C5O-4" value="&lt;font style=&quot;font-size: 20px;&quot; face=&quot;Times New Roman&quot;&gt;文本预处理&lt;/font&gt;" style="rounded=1;whiteSpace=wrap;html=1;strokeWidth=2;" vertex="1" parent="1">
          <mxGeometry x="-664.5" y="1172" width="357.5" height="43" as="geometry" />
        </mxCell>
        <mxCell id="JXMVNWuGaPXXA2984C5O-5" value="" style="sketch=0;pointerEvents=1;shadow=0;dashed=0;html=1;strokeColor=none;fillColor=#505050;labelPosition=center;verticalLabelPosition=bottom;verticalAlign=top;outlineConnect=0;align=center;shape=mxgraph.office.concepts.document;" vertex="1" parent="1">
          <mxGeometry x="-557" y="1080" width="40" height="47" as="geometry" />
        </mxCell>
        <mxCell id="JXMVNWuGaPXXA2984C5O-6" value="" style="sketch=0;pointerEvents=1;shadow=0;dashed=0;html=1;strokeColor=none;fillColor=#505050;labelPosition=center;verticalLabelPosition=bottom;verticalAlign=top;outlineConnect=0;align=center;shape=mxgraph.office.concepts.document;" vertex="1" parent="1">
          <mxGeometry x="-507" y="1080" width="40" height="47" as="geometry" />
        </mxCell>
        <mxCell id="JXMVNWuGaPXXA2984C5O-7" value="" style="sketch=0;pointerEvents=1;shadow=0;dashed=0;html=1;strokeColor=none;fillColor=#505050;labelPosition=center;verticalLabelPosition=bottom;verticalAlign=top;outlineConnect=0;align=center;shape=mxgraph.office.concepts.document;" vertex="1" parent="1">
          <mxGeometry x="-457" y="1080" width="40" height="47" as="geometry" />
        </mxCell>
        <mxCell id="JXMVNWuGaPXXA2984C5O-8" value="&lt;font face=&quot;Times New Roman&quot;&gt;&lt;span style=&quot;font-size: 20px;&quot;&gt;拼音嵌入生成&lt;/span&gt;&lt;/font&gt;" style="rounded=1;whiteSpace=wrap;html=1;" vertex="1" parent="1">
          <mxGeometry x="-647" y="1369" width="160" height="60" as="geometry" />
        </mxCell>
        <mxCell id="JXMVNWuGaPXXA2984C5O-9" style="rounded=0;orthogonalLoop=1;jettySize=auto;html=1;exitX=1;exitY=0.5;exitDx=0;exitDy=0;entryX=0;entryY=0.5;entryDx=0;entryDy=0;" edge="1" parent="1" source="JXMVNWuGaPXXA2984C5O-10" target="JXMVNWuGaPXXA2984C5O-17">
          <mxGeometry relative="1" as="geometry" />
        </mxCell>
        <mxCell id="JXMVNWuGaPXXA2984C5O-10" value="&lt;font face=&quot;Times New Roman&quot;&gt;&lt;span style=&quot;font-size: 20px;&quot;&gt;字形嵌入生成&lt;/span&gt;&lt;/font&gt;" style="rounded=1;whiteSpace=wrap;html=1;" vertex="1" parent="1">
          <mxGeometry x="-477" y="1369" width="150" height="60" as="geometry" />
        </mxCell>
        <mxCell id="JXMVNWuGaPXXA2984C5O-11" style="rounded=0;orthogonalLoop=1;jettySize=auto;html=1;exitX=1;exitY=0.5;exitDx=0;exitDy=0;entryX=0;entryY=0.5;entryDx=0;entryDy=0;" edge="1" parent="1" source="JXMVNWuGaPXXA2984C5O-12" target="JXMVNWuGaPXXA2984C5O-22">
          <mxGeometry relative="1" as="geometry" />
        </mxCell>
        <mxCell id="JXMVNWuGaPXXA2984C5O-12" value="&lt;font face=&quot;Times New Roman&quot;&gt;&lt;span style=&quot;font-size: 20px;&quot;&gt;词典信息匹配和词向量生成&lt;/span&gt;&lt;/font&gt;" style="rounded=1;whiteSpace=wrap;html=1;" vertex="1" parent="1">
          <mxGeometry x="-647" y="1445" width="320" height="60" as="geometry" />
        </mxCell>
        <mxCell id="JXMVNWuGaPXXA2984C5O-13" style="edgeStyle=orthogonalEdgeStyle;rounded=0;orthogonalLoop=1;jettySize=auto;html=1;exitX=0.5;exitY=1;exitDx=0;exitDy=0;entryX=0.235;entryY=-0.033;entryDx=0;entryDy=0;entryPerimeter=0;" edge="1" parent="1" source="JXMVNWuGaPXXA2984C5O-14" target="JXMVNWuGaPXXA2984C5O-19">
          <mxGeometry relative="1" as="geometry" />
        </mxCell>
        <mxCell id="JXMVNWuGaPXXA2984C5O-14" value="&lt;font face=&quot;Times New Roman&quot;&gt;&lt;span style=&quot;font-size: 20px;&quot;&gt;依存句法分析和句法信息嵌入生成&lt;/span&gt;&lt;/font&gt;" style="rounded=1;whiteSpace=wrap;html=1;" vertex="1" parent="1">
          <mxGeometry x="-647" y="1519" width="320" height="60" as="geometry" />
        </mxCell>
        <mxCell id="JXMVNWuGaPXXA2984C5O-15" value="" style="rounded=0;whiteSpace=wrap;html=1;fillColor=none;dashed=1;strokeWidth=1;" vertex="1" parent="1">
          <mxGeometry x="-257" y="1329" width="335" height="260" as="geometry" />
        </mxCell>
        <mxCell id="JXMVNWuGaPXXA2984C5O-16" value="&lt;font face=&quot;Times New Roman&quot; style=&quot;font-size: 20px;&quot;&gt;基于 Transformer 的上下文编码模块&lt;/font&gt;" style="text;strokeColor=none;align=center;fillColor=none;html=1;verticalAlign=middle;whiteSpace=wrap;rounded=0;" vertex="1" parent="1">
          <mxGeometry x="-269.5" y="1335" width="360" height="30" as="geometry" />
        </mxCell>
        <mxCell id="JXMVNWuGaPXXA2984C5O-17" value="&lt;font style=&quot;font-size: 20px;&quot;&gt;嵌入层&lt;/font&gt;" style="rounded=1;whiteSpace=wrap;html=1;" vertex="1" parent="1">
          <mxGeometry x="-239.5" y="1370" width="300" height="30" as="geometry" />
        </mxCell>
        <mxCell id="JXMVNWuGaPXXA2984C5O-18" value="&lt;font style=&quot;font-size: 20px;&quot;&gt;Transformer 层&lt;/font&gt;" style="rounded=1;whiteSpace=wrap;html=1;" vertex="1" parent="1">
          <mxGeometry x="-239.5" y="1406" width="300" height="30" as="geometry" />
        </mxCell>
        <mxCell id="JXMVNWuGaPXXA2984C5O-19" value="" style="rounded=0;whiteSpace=wrap;html=1;fillColor=none;dashed=1;strokeWidth=3;" vertex="1" parent="1">
          <mxGeometry x="-665.5" y="1649" width="757.5" height="130" as="geometry" />
        </mxCell>
        <mxCell id="JXMVNWuGaPXXA2984C5O-20" value="&lt;font face=&quot;Times New Roman&quot; style=&quot;font-size: 20px;&quot;&gt;特征生成模块&lt;/font&gt;" style="text;strokeColor=none;align=center;fillColor=none;html=1;verticalAlign=middle;whiteSpace=wrap;rounded=0;" vertex="1" parent="1">
          <mxGeometry x="-677" y="1336" width="362.5" height="30" as="geometry" />
        </mxCell>
        <mxCell id="JXMVNWuGaPXXA2984C5O-21" value="&lt;font style=&quot;font-size: 20px;&quot;&gt;Transformer 层&lt;/font&gt;" style="rounded=1;whiteSpace=wrap;html=1;" vertex="1" parent="1">
          <mxGeometry x="-237" y="1550" width="300" height="30" as="geometry" />
        </mxCell>
        <mxCell id="JXMVNWuGaPXXA2984C5O-22" value="&lt;font style=&quot;font-size: 20px;&quot;&gt;基于注意力机制的词典信息融合&lt;/font&gt;" style="rounded=1;whiteSpace=wrap;html=1;" vertex="1" parent="1">
          <mxGeometry x="-237" y="1464" width="300" height="60" as="geometry" />
        </mxCell>
        <mxCell id="JXMVNWuGaPXXA2984C5O-23" value="" style="shape=flexArrow;endArrow=classic;html=1;rounded=0;entryX=0.5;entryY=0;entryDx=0;entryDy=0;" edge="1" parent="1">
          <mxGeometry width="50" height="50" relative="1" as="geometry">
            <mxPoint x="-486" y="1130" as="sourcePoint" />
            <mxPoint x="-485.75" y="1170" as="targetPoint" />
          </mxGeometry>
        </mxCell>
        <mxCell id="JXMVNWuGaPXXA2984C5O-24" value="" style="shape=flexArrow;endArrow=classic;html=1;rounded=0;entryX=0.5;entryY=0;entryDx=0;entryDy=0;" edge="1" parent="1">
          <mxGeometry width="50" height="50" relative="1" as="geometry">
            <mxPoint x="-487.57" y="1229" as="sourcePoint" />
            <mxPoint x="-487.57" y="1269" as="targetPoint" />
          </mxGeometry>
        </mxCell>
        <mxCell id="JXMVNWuGaPXXA2984C5O-25" value="&lt;font style=&quot;font-size: 20px;&quot; face=&quot;Times New Roman&quot;&gt;比较关系识别&lt;/font&gt;" style="rounded=1;whiteSpace=wrap;html=1;strokeWidth=2;" vertex="1" parent="1">
          <mxGeometry x="-264.5" y="1172" width="357.5" height="43" as="geometry" />
        </mxCell>
        <mxCell id="JXMVNWuGaPXXA2984C5O-26" value="&lt;font style=&quot;font-size: 20px;&quot;&gt;识别模块&lt;/font&gt;" style="rounded=1;whiteSpace=wrap;html=1;strokeWidth=2;" vertex="1" parent="1">
          <mxGeometry x="-637" y="1705" width="280" height="60" as="geometry" />
        </mxCell>
        <mxCell id="JXMVNWuGaPXXA2984C5O-27" style="edgeStyle=orthogonalEdgeStyle;rounded=0;orthogonalLoop=1;jettySize=auto;html=1;exitX=0;exitY=0.5;exitDx=0;exitDy=0;entryX=1;entryY=0.5;entryDx=0;entryDy=0;startArrow=classic;startFill=1;" edge="1" parent="1" source="JXMVNWuGaPXXA2984C5O-28" target="JXMVNWuGaPXXA2984C5O-26">
          <mxGeometry relative="1" as="geometry" />
        </mxCell>
        <mxCell id="JXMVNWuGaPXXA2984C5O-28" value="&lt;font style=&quot;font-size: 20px;&quot;&gt;关联模块&lt;/font&gt;" style="rounded=1;whiteSpace=wrap;html=1;strokeWidth=2;" vertex="1" parent="1">
          <mxGeometry x="-207" y="1705" width="277.5" height="60" as="geometry" />
        </mxCell>
        <mxCell id="JXMVNWuGaPXXA2984C5O-29" value="&lt;font face=&quot;Times New Roman&quot; style=&quot;font-size: 20px;&quot;&gt;&lt;b&gt;基于Span的联合抽取模型&lt;/b&gt;&lt;/font&gt;" style="text;strokeColor=none;align=center;fillColor=none;html=1;verticalAlign=middle;whiteSpace=wrap;rounded=0;" vertex="1" parent="1">
          <mxGeometry x="-465" y="1660" width="360" height="30" as="geometry" />
        </mxCell>
        <mxCell id="JXMVNWuGaPXXA2984C5O-30" value="&lt;font face=&quot;Times New Roman&quot; style=&quot;font-size: 20px;&quot;&gt;联合训练&lt;/font&gt;" style="text;strokeColor=none;align=center;fillColor=none;html=1;verticalAlign=middle;whiteSpace=wrap;rounded=0;" vertex="1" parent="1">
          <mxGeometry x="-337" y="1702" width="120" height="30" as="geometry" />
        </mxCell>
        <mxCell id="JXMVNWuGaPXXA2984C5O-31" value="" style="shape=flexArrow;endArrow=classic;html=1;rounded=0;entryX=0.5;entryY=0;entryDx=0;entryDy=0;" edge="1" parent="1">
          <mxGeometry width="50" height="50" relative="1" as="geometry">
            <mxPoint x="-79.75999999999999" y="1604" as="sourcePoint" />
            <mxPoint x="-79.75999999999999" y="1644" as="targetPoint" />
          </mxGeometry>
        </mxCell>
        <mxCell id="JXMVNWuGaPXXA2984C5O-32" value="&lt;font size=&quot;1&quot; face=&quot;Times New Roman&quot;&gt;&lt;b style=&quot;font-size: 29px;&quot;&gt;......&lt;/b&gt;&lt;/font&gt;" style="text;strokeColor=none;align=center;fillColor=none;html=1;verticalAlign=middle;whiteSpace=wrap;rounded=0;" vertex="1" parent="1">
          <mxGeometry x="-267" y="1427" width="360" height="30" as="geometry" />
        </mxCell>
        <mxCell id="JXMVNWuGaPXXA2984C5O-33" value="&lt;font size=&quot;1&quot; face=&quot;Times New Roman&quot;&gt;&lt;b style=&quot;font-size: 29px;&quot;&gt;......&lt;/b&gt;&lt;/font&gt;" style="text;strokeColor=none;align=center;fillColor=none;html=1;verticalAlign=middle;whiteSpace=wrap;rounded=0;" vertex="1" parent="1">
          <mxGeometry x="-267" y="1514" width="360" height="30" as="geometry" />
        </mxCell>
        <mxCell id="JXMVNWuGaPXXA2984C5O-34" value="&lt;font face=&quot;Times New Roman&quot; style=&quot;font-size: 20px;&quot;&gt;&lt;b&gt;多粒度特征增强模型&lt;/b&gt;&lt;/font&gt;" style="text;strokeColor=none;align=center;fillColor=none;html=1;verticalAlign=middle;whiteSpace=wrap;rounded=0;" vertex="1" parent="1">
          <mxGeometry x="-465" y="1285" width="360" height="30" as="geometry" />
        </mxCell>
      </root>
    </mxGraphModel>
  </diagram>
  <diagram id="itGyRFEgS_IcXMzycTbn" name="第 3 页">
    <mxGraphModel dx="2586" dy="1341" grid="0" gridSize="10" guides="1" tooltips="1" connect="1" arrows="1" fold="1" page="1" pageScale="1" pageWidth="1654" pageHeight="2336" math="0" shadow="0">
      <root>
        <mxCell id="0" />
        <mxCell id="1" parent="0" />
        <mxCell id="JWPOetE6dIa3jUjdbUVX-1" value="" style="rounded=0;whiteSpace=wrap;html=1;fillColor=none;dashed=1;strokeWidth=3;" parent="1" vertex="1">
          <mxGeometry x="175" y="181" width="355" height="290" as="geometry" />
        </mxCell>
        <mxCell id="JWPOetE6dIa3jUjdbUVX-2" value="&lt;font face=&quot;Times New Roman&quot;&gt;&lt;span style=&quot;font-size: 20px;&quot;&gt;拼音嵌入生成&lt;/span&gt;&lt;/font&gt;" style="rounded=1;whiteSpace=wrap;html=1;" parent="1" vertex="1">
          <mxGeometry x="190" y="240" width="160" height="60" as="geometry" />
        </mxCell>
        <mxCell id="JWPOetE6dIa3jUjdbUVX-15" style="edgeStyle=orthogonalEdgeStyle;rounded=0;orthogonalLoop=1;jettySize=auto;html=1;exitX=1;exitY=0.5;exitDx=0;exitDy=0;entryX=0;entryY=0.5;entryDx=0;entryDy=0;" parent="1" source="JWPOetE6dIa3jUjdbUVX-3" target="JWPOetE6dIa3jUjdbUVX-8" edge="1">
          <mxGeometry relative="1" as="geometry" />
        </mxCell>
        <mxCell id="JWPOetE6dIa3jUjdbUVX-3" value="&lt;font face=&quot;Times New Roman&quot;&gt;&lt;span style=&quot;font-size: 20px;&quot;&gt;字形嵌入生成&lt;/span&gt;&lt;/font&gt;" style="rounded=1;whiteSpace=wrap;html=1;" parent="1" vertex="1">
          <mxGeometry x="360" y="240" width="150" height="60" as="geometry" />
        </mxCell>
        <mxCell id="JWPOetE6dIa3jUjdbUVX-14" style="edgeStyle=orthogonalEdgeStyle;rounded=0;orthogonalLoop=1;jettySize=auto;html=1;exitX=1;exitY=0.5;exitDx=0;exitDy=0;entryX=0;entryY=0.5;entryDx=0;entryDy=0;" parent="1" source="JWPOetE6dIa3jUjdbUVX-4" target="JWPOetE6dIa3jUjdbUVX-10" edge="1">
          <mxGeometry relative="1" as="geometry" />
        </mxCell>
        <mxCell id="JWPOetE6dIa3jUjdbUVX-4" value="&lt;font face=&quot;Times New Roman&quot;&gt;&lt;span style=&quot;font-size: 20px;&quot;&gt;词典信息匹配和词向量生成&lt;/span&gt;&lt;/font&gt;" style="rounded=1;whiteSpace=wrap;html=1;" parent="1" vertex="1">
          <mxGeometry x="190" y="316" width="320" height="60" as="geometry" />
        </mxCell>
        <mxCell id="JWPOetE6dIa3jUjdbUVX-13" style="edgeStyle=orthogonalEdgeStyle;rounded=0;orthogonalLoop=1;jettySize=auto;html=1;exitX=1;exitY=0.5;exitDx=0;exitDy=0;entryX=0;entryY=0.5;entryDx=0;entryDy=0;" parent="1" source="JWPOetE6dIa3jUjdbUVX-5" target="JWPOetE6dIa3jUjdbUVX-11" edge="1">
          <mxGeometry relative="1" as="geometry" />
        </mxCell>
        <mxCell id="JWPOetE6dIa3jUjdbUVX-5" value="&lt;font face=&quot;Times New Roman&quot;&gt;&lt;span style=&quot;font-size: 20px;&quot;&gt;依存句法分析和句法信息嵌入生成&lt;/span&gt;&lt;/font&gt;" style="rounded=1;whiteSpace=wrap;html=1;" parent="1" vertex="1">
          <mxGeometry x="190" y="390" width="320" height="60" as="geometry" />
        </mxCell>
        <mxCell id="JWPOetE6dIa3jUjdbUVX-6" value="&lt;font face=&quot;Times New Roman&quot; style=&quot;font-size: 20px;&quot;&gt;多粒度特征生成模块&lt;/font&gt;" style="text;strokeColor=none;align=center;fillColor=none;html=1;verticalAlign=middle;whiteSpace=wrap;rounded=0;" parent="1" vertex="1">
          <mxGeometry x="160" y="197" width="362.5" height="30" as="geometry" />
        </mxCell>
        <mxCell id="JWPOetE6dIa3jUjdbUVX-7" value="" style="rounded=0;whiteSpace=wrap;html=1;fillColor=none;dashed=1;strokeWidth=3;" parent="1" vertex="1">
          <mxGeometry x="575" y="181" width="355" height="290" as="geometry" />
        </mxCell>
        <mxCell id="JWPOetE6dIa3jUjdbUVX-8" value="&lt;font face=&quot;Times New Roman&quot;&gt;&lt;span style=&quot;font-size: 20px;&quot;&gt;嵌入层&lt;/span&gt;&lt;/font&gt;" style="rounded=1;whiteSpace=wrap;html=1;" parent="1" vertex="1">
          <mxGeometry x="590" y="240" width="320" height="60" as="geometry" />
        </mxCell>
        <mxCell id="JWPOetE6dIa3jUjdbUVX-10" value="&lt;font face=&quot;Times New Roman&quot;&gt;&lt;span style=&quot;font-size: 20px;&quot;&gt;基于Transformer的上下文编码层&lt;/span&gt;&lt;/font&gt;" style="rounded=1;whiteSpace=wrap;html=1;" parent="1" vertex="1">
          <mxGeometry x="590" y="316" width="320" height="60" as="geometry" />
        </mxCell>
        <mxCell id="JWPOetE6dIa3jUjdbUVX-11" value="&lt;font face=&quot;Times New Roman&quot;&gt;&lt;span style=&quot;font-size: 20px;&quot;&gt;Span混合表征融合层&lt;/span&gt;&lt;/font&gt;" style="rounded=1;whiteSpace=wrap;html=1;" parent="1" vertex="1">
          <mxGeometry x="590" y="390" width="320" height="60" as="geometry" />
        </mxCell>
        <mxCell id="JWPOetE6dIa3jUjdbUVX-12" value="&lt;font face=&quot;Times New Roman&quot; style=&quot;font-size: 20px;&quot;&gt;多粒度特征融合模块&lt;/font&gt;" style="text;strokeColor=none;align=center;fillColor=none;html=1;verticalAlign=middle;whiteSpace=wrap;rounded=0;" parent="1" vertex="1">
          <mxGeometry x="560" y="197" width="362.5" height="30" as="geometry" />
        </mxCell>
      </root>
    </mxGraphModel>
  </diagram>
  <diagram id="LyTMSPEDlTOy7ArBxIze" name="第 4 页">
    <mxGraphModel dx="2586" dy="1341" grid="0" gridSize="10" guides="1" tooltips="1" connect="1" arrows="1" fold="1" page="1" pageScale="1" pageWidth="1654" pageHeight="2336" math="0" shadow="0">
      <root>
        <mxCell id="0" />
        <mxCell id="1" parent="0" />
        <mxCell id="OYx0mLcHSwUc6LhwKkK8-11" style="edgeStyle=orthogonalEdgeStyle;rounded=0;orthogonalLoop=1;jettySize=auto;html=1;exitX=0;exitY=0.5;exitDx=0;exitDy=0;entryX=0;entryY=0.5;entryDx=0;entryDy=0;" parent="1" source="OYx0mLcHSwUc6LhwKkK8-8" target="OYx0mLcHSwUc6LhwKkK8-2" edge="1">
          <mxGeometry relative="1" as="geometry" />
        </mxCell>
        <mxCell id="OYx0mLcHSwUc6LhwKkK8-13" style="edgeStyle=orthogonalEdgeStyle;rounded=0;orthogonalLoop=1;jettySize=auto;html=1;exitX=1;exitY=0.5;exitDx=0;exitDy=0;entryX=1;entryY=0.5;entryDx=0;entryDy=0;" parent="1" source="OYx0mLcHSwUc6LhwKkK8-8" target="OYx0mLcHSwUc6LhwKkK8-4" edge="1">
          <mxGeometry relative="1" as="geometry" />
        </mxCell>
        <mxCell id="OYx0mLcHSwUc6LhwKkK8-8" value="" style="rounded=0;whiteSpace=wrap;html=1;fillColor=none;dashed=1;strokeWidth=3;" parent="1" vertex="1">
          <mxGeometry x="169" y="335" width="757.5" height="133" as="geometry" />
        </mxCell>
        <mxCell id="OYx0mLcHSwUc6LhwKkK8-1" value="" style="rounded=0;whiteSpace=wrap;html=1;fillColor=none;dashed=1;strokeWidth=3;" parent="1" vertex="1">
          <mxGeometry x="171.5" y="521" width="757.5" height="117" as="geometry" />
        </mxCell>
        <mxCell id="OYx0mLcHSwUc6LhwKkK8-2" value="&lt;font style=&quot;font-size: 20px;&quot;&gt;识别分类器&lt;/font&gt;" style="rounded=1;whiteSpace=wrap;html=1;strokeWidth=2;" parent="1" vertex="1">
          <mxGeometry x="200" y="561" width="280" height="60" as="geometry" />
        </mxCell>
        <mxCell id="OYx0mLcHSwUc6LhwKkK8-3" style="edgeStyle=orthogonalEdgeStyle;rounded=0;orthogonalLoop=1;jettySize=auto;html=1;exitX=0;exitY=0.5;exitDx=0;exitDy=0;entryX=1;entryY=0.5;entryDx=0;entryDy=0;startArrow=classic;startFill=1;" parent="1" source="OYx0mLcHSwUc6LhwKkK8-4" target="OYx0mLcHSwUc6LhwKkK8-2" edge="1">
          <mxGeometry relative="1" as="geometry" />
        </mxCell>
        <mxCell id="OYx0mLcHSwUc6LhwKkK8-4" value="&lt;font style=&quot;font-size: 20px;&quot;&gt;关联分类器&lt;/font&gt;" style="rounded=1;whiteSpace=wrap;html=1;strokeWidth=2;" parent="1" vertex="1">
          <mxGeometry x="630" y="561" width="277.5" height="60" as="geometry" />
        </mxCell>
        <mxCell id="OYx0mLcHSwUc6LhwKkK8-5" value="&lt;font face=&quot;Times New Roman&quot; style=&quot;font-size: 20px;&quot;&gt;&lt;b&gt;基于Span的联合抽取模块&lt;/b&gt;&lt;/font&gt;" style="text;strokeColor=none;align=center;fillColor=none;html=1;verticalAlign=middle;whiteSpace=wrap;rounded=0;" parent="1" vertex="1">
          <mxGeometry x="151" y="527" width="360" height="30" as="geometry" />
        </mxCell>
        <mxCell id="OYx0mLcHSwUc6LhwKkK8-6" value="&lt;font face=&quot;Times New Roman&quot; style=&quot;font-size: 20px;&quot;&gt;&lt;b&gt;联合训练&lt;/b&gt;&lt;/font&gt;" style="text;strokeColor=none;align=center;fillColor=none;html=1;verticalAlign=middle;whiteSpace=wrap;rounded=0;" parent="1" vertex="1">
          <mxGeometry x="500" y="558" width="120" height="30" as="geometry" />
        </mxCell>
        <mxCell id="OYx0mLcHSwUc6LhwKkK8-7" value="&lt;font style=&quot;font-size: 20px;&quot;&gt;句法信息特征&lt;/font&gt;" style="rounded=0;whiteSpace=wrap;html=1;fillColor=#fff2cc;strokeColor=#d6b656;" parent="1" vertex="1">
          <mxGeometry x="191.5" y="387" width="267" height="60" as="geometry" />
        </mxCell>
        <mxCell id="OYx0mLcHSwUc6LhwKkK8-9" value="&lt;font style=&quot;font-size: 20px;&quot;&gt;跨度长度特征&lt;/font&gt;" style="rounded=0;whiteSpace=wrap;html=1;fillColor=#e1d5e7;strokeColor=#9673a6;" parent="1" vertex="1">
          <mxGeometry x="482.25" y="387" width="136" height="60" as="geometry" />
        </mxCell>
        <mxCell id="OYx0mLcHSwUc6LhwKkK8-10" value="&lt;font face=&quot;Times New Roman&quot; style=&quot;font-size: 20px;&quot;&gt;&lt;b&gt;Span混合特征融合层&lt;/b&gt;&lt;/font&gt;" style="text;strokeColor=none;align=center;fillColor=none;html=1;verticalAlign=middle;whiteSpace=wrap;rounded=0;" parent="1" vertex="1">
          <mxGeometry x="122.25" y="350" width="360" height="30" as="geometry" />
        </mxCell>
        <mxCell id="OYx0mLcHSwUc6LhwKkK8-14" value="&lt;span style=&quot;font-size: 20px;&quot;&gt;上下文特征&lt;/span&gt;" style="rounded=0;whiteSpace=wrap;html=1;fillColor=#d5e8d4;strokeColor=#82b366;" parent="1" vertex="1">
          <mxGeometry x="642" y="387" width="136" height="60" as="geometry" />
        </mxCell>
        <mxCell id="qOIL7fL4MlAwCY-rdVd6-1" value="&lt;span style=&quot;font-size: 20px;&quot;&gt;字符特征&lt;/span&gt;" style="rounded=0;whiteSpace=wrap;html=1;fillColor=#dae8fc;strokeColor=#6c8ebf;" parent="1" vertex="1">
          <mxGeometry x="802" y="387" width="109" height="60" as="geometry" />
        </mxCell>
        <mxCell id="qOIL7fL4MlAwCY-rdVd6-2" value="&lt;font style=&quot;font-size: 20px;&quot;&gt;共享特征&lt;/font&gt;" style="text;strokeColor=none;align=center;fillColor=none;html=1;verticalAlign=middle;whiteSpace=wrap;rounded=0;" parent="1" vertex="1">
          <mxGeometry x="87" y="478" width="60" height="30" as="geometry" />
        </mxCell>
        <mxCell id="qOIL7fL4MlAwCY-rdVd6-3" value="&lt;font style=&quot;font-size: 20px;&quot;&gt;共享特征&lt;/font&gt;" style="text;strokeColor=none;align=center;fillColor=none;html=1;verticalAlign=middle;whiteSpace=wrap;rounded=0;" parent="1" vertex="1">
          <mxGeometry x="947" y="473" width="60" height="30" as="geometry" />
        </mxCell>
        <mxCell id="qOIL7fL4MlAwCY-rdVd6-8" style="rounded=0;orthogonalLoop=1;jettySize=auto;html=1;exitX=0.5;exitY=0;exitDx=0;exitDy=0;entryX=0.5;entryY=1;entryDx=0;entryDy=0;" parent="1" source="qOIL7fL4MlAwCY-rdVd6-4" target="OYx0mLcHSwUc6LhwKkK8-2" edge="1">
          <mxGeometry relative="1" as="geometry" />
        </mxCell>
        <mxCell id="qOIL7fL4MlAwCY-rdVd6-11" style="edgeStyle=orthogonalEdgeStyle;rounded=0;orthogonalLoop=1;jettySize=auto;html=1;exitX=1;exitY=0.5;exitDx=0;exitDy=0;entryX=0;entryY=0.5;entryDx=0;entryDy=0;" parent="1" source="qOIL7fL4MlAwCY-rdVd6-4" target="qOIL7fL4MlAwCY-rdVd6-9" edge="1">
          <mxGeometry relative="1" as="geometry" />
        </mxCell>
        <mxCell id="qOIL7fL4MlAwCY-rdVd6-4" value="&lt;font style=&quot;font-size: 20px;&quot;&gt;候选跨度生成模块&lt;/font&gt;" style="rounded=1;whiteSpace=wrap;html=1;" parent="1" vertex="1">
          <mxGeometry x="197" y="657" width="287" height="60" as="geometry" />
        </mxCell>
        <mxCell id="qOIL7fL4MlAwCY-rdVd6-10" style="edgeStyle=orthogonalEdgeStyle;rounded=0;orthogonalLoop=1;jettySize=auto;html=1;exitX=0.5;exitY=0;exitDx=0;exitDy=0;entryX=0.5;entryY=1;entryDx=0;entryDy=0;" parent="1" source="qOIL7fL4MlAwCY-rdVd6-9" target="OYx0mLcHSwUc6LhwKkK8-4" edge="1">
          <mxGeometry relative="1" as="geometry" />
        </mxCell>
        <mxCell id="qOIL7fL4MlAwCY-rdVd6-9" value="&lt;font style=&quot;font-size: 20px;&quot;&gt;候选跨度对生成模块&lt;/font&gt;" style="rounded=1;whiteSpace=wrap;html=1;" parent="1" vertex="1">
          <mxGeometry x="630" y="657" width="287" height="60" as="geometry" />
        </mxCell>
      </root>
    </mxGraphModel>
  </diagram>
</mxfile>
